# xmcd
#
# Track frame offsets:
#	150
#	19530
#	37137
#	54797
#	72317
#	85520
#	103375
#	120405
#	135165
#	152887
#	170047
#	188632
#	206995
#	228580
#
# Disc length: 3289 seconds
#
# Revision: 4
# Processed by: cddbd v1.5.2PL0 Copyright (c) Steve Scherf et al.
# Submitted via: audiograbber 1.83.01
#
DISCID=b90cd70e
DTITLE=Rock Of The 90's {Various} - Rock Of The 90's {CD 3}
DYEAR=2004
DGENRE=Hard Rock
TTITLE0=Rush - {Big Audio Dynamite II}
TTITLE1=Little Miss Can't Be Wrong - {Spin Doctors}
TTITLE2=All I Know - {Screaming Trees}
TTITLE3=Everything Falls Apart - {Dog's Eye View}
TTITLE4=Hush - {Kula Shaker}
TTITLE5=Peace Pipe - {Cry Of Love}
TTITLE6=I Know - {Dionne Farris}
TTITLE7=Plowed - {Sponge}
TTITLE8=I Think God Can Explain - {Splender}
TTITLE9=Can't Stop Falling Into Love - {Cheap Trick}
TTITLE10=Straight To Your Heart - {Bad English}
TTITLE11=I'll Take You There - {General Public}
TTITLE12=Reach For The Sky - {Firehouse}
TTITLE13=Uncle Tom's Cabin - {Warrant}
EXTD=
EXTT0=
EXTT1=
EXTT2=
EXTT3=
EXTT4=
EXTT5=
EXTT6=
EXTT7=
EXTT8=
EXTT9=
EXTT10=
EXTT11=
EXTT12=
EXTT13=
PLAYORDER=
